<?xml version="1.0" encoding="UTF-8"?>
<svg width="512px" height="512px" viewBox="0 0 512 512" version="1.1" xmlns="http://www.w3.org/2000/svg" xmlns:xlink="http://www.w3.org/1999/xlink">
    <!-- Generator: Sketch 51.3 (57544) - http://www.bohemiancoding.com/sketch -->
    <title>calculator</title>
    <desc>Created with Sketch.</desc>
    <defs>
        <radialGradient cx="50%" cy="0%" fx="50%" fy="0%" r="122.224754%" id="radialGradient-1">
            <stop stop-color="#C5FF5C" offset="0%"></stop>
            <stop stop-color="#B7B0FF" offset="100%"></stop>
        </radialGradient>
    </defs>
    <g id="Page-1" stroke="none" stroke-width="1" fill="none" fill-rule="evenodd">
        <g id="calculator" fill="url(#radialGradient-1)" fill-rule="nonzero">
            <path d="M457,0 L55,0 C24.6380465,0.0330680491 0.0330680491,24.6380465 0,55 L0,457 C0.0330680491,487.361953 24.6380465,511.966932 55,512 L457,512 C487.361953,511.966932 511.966932,487.361953 512,457 L512,55 C511.966932,24.6380465 487.361953,0.0330680491 457,0 Z M482,55 L482,241 L271,241 L271,30 L457,30 C470.807119,30 482,41.1928813 482,55 Z M55,30 L241,30 L241,241 L30,241 L30,55 C30,41.1928813 41.1928813,30 55,30 Z M30,457 L30,271 L241,271 L241,482 L55,482 C41.1928813,482 30,470.807119 30,457 Z M457,482 L271,482 L271,271 L482,271 L482,457 C482,470.807119 470.807119,482 457,482 Z" id="Shape"></path>
            <path d="M76,151 L121,151 L121,196 C121,204.284271 127.715729,211 136,211 C144.284271,211 151,204.284271 151,196 L151,151 L196,151 C204.284271,151 211,144.284271 211,136 C211,127.715729 204.284271,121 196,121 L151,121 L151,76 C151,67.7157288 144.284271,61 136,61 C127.715729,61 121,67.7157288 121,76 L121,121 L76,121 C67.7157288,121 61,127.715729 61,136 C61,144.284271 67.7157288,151 76,151 Z M316,151 L436,151 C444.284271,151 451,144.284271 451,136 C451,127.715729 444.284271,121 436,121 L316,121 C307.715729,121 301,127.715729 301,136 C301,144.284271 307.715729,151 316,151 Z M156.71,376 L196.11,336.61 C201.969741,330.750259 201.969741,321.249741 196.11,315.39 C190.250259,309.530259 180.749741,309.530259 174.89,315.39 L135.5,354.79 L96.11,315.39 C90.2502588,309.530259 80.7497413,309.530259 74.8900002,315.39 C69.030259,321.249741 69.030259,330.750259 74.89,336.61 L114.29,376 L74.89,415.39 C69.030259,421.249741 69.030259,430.750259 74.8900002,436.61 C80.7497413,442.469741 90.2502588,442.469741 96.11,436.61 L135.5,397.21 L174.89,436.61 C180.749741,442.469741 190.250259,442.469741 196.11,436.61 C201.969741,430.750259 201.969741,421.249741 196.11,415.39 L156.71,376 Z M376.5,420.5 C368.215729,420.5 361.5,427.215729 361.5,435.5 L361.5,436.5 C361.5,444.784271 368.215729,451.499999 376.5,451.499999 C384.784271,451.499999 391.5,444.784271 391.5,436.5 L391.5,435.5 C391.5,427.215729 384.784271,420.5 376.5,420.5 Z M376.5,332.5 C384.784271,332.5 391.5,325.784271 391.5,317.5 L391.5,316.5 C391.5,308.215729 384.784271,301.500001 376.5,301.500001 C368.215729,301.500001 361.5,308.215729 361.5,316.5 L361.5,317.5 C361.5,325.784271 368.215729,332.5 376.5,332.5 Z M436.5,361.5 L316.5,361.5 C308.215729,361.5 301.500001,368.215729 301.500001,376.5 C301.500001,384.784271 308.215729,391.5 316.5,391.5 L436.5,391.5 C444.784271,391.5 451.499999,384.784271 451.499999,376.5 C451.499999,368.215729 444.784271,361.5 436.5,361.5 Z" id="Shape"></path>
        </g>
    </g>
</svg>